<svg width="512" height="512" xmlns="http://www.w3.org/2000/svg" xmlns:svg="http://www.w3.org/2000/svg">
 <g class="layer">
  <title>Layer 1</title>
<style>
  * {
    fill: white;
  }
</style>
  <path fill="#00ffff" id="svg_1" d="m256,264a50.4,50.4 0 0 1 -27.757,-8.45c-12.054,6.915 -22.081,18.2 -28.509,32.249a87.425,87.425 0 0 0 -7.734,36.201c0,41.906 28.71,76 64,76s64,-34.094 64,-76a87.415,87.415 0 0 0 -7.732,-36.2c-6.43,-14.051 -16.457,-25.339 -28.511,-32.254a50.4,50.4 0 0 1 -27.757,8.454z"/>
  <ellipse fill="#00ffff" id="svg_2" ry="48" rx="40" cy="200" cx="256"/>
  <path fill="#00ffff" id="svg_3" d="m380.411,344.583c-17.939,-33.017 -39.256,-52.611 -54.576,-63.473c0.329,0.676 0.665,1.345 0.979,2.031a101.315,101.315 0 0 1 7.881,26.307c28.062,27.786 60.982,81.305 65.313,180.9a8,8 0 0 0 7.986,7.652c0.117,0 0.235,0 0.354,-0.008a8,8 0 0 0 7.644,-8.34c-2.492,-57.399 -14.467,-106.208 -35.581,-145.069z"/>
  <path fill="#00ffff" id="svg_4" d="m459.578,74.845a8,8 0 0 0 -10.733,3.577l-46.519,93.036l-90.336,30.109c0,0.145 0.01,0.288 0.01,0.433a72.41,72.41 0 0 1 -2.049,17.113l100.578,-33.523a8,8 0 0 0 4.626,-4.012l48,-96a8,8 0 0 0 -3.577,-10.733z"/>
  <path fill="#00ffff" id="svg_5" d="m464,274l-84,0l-21.6,-28.8a8,8 0 0 0 -3.871,-2.79l-46.9,-15.63a66.668,66.668 0 0 1 -7.4,14.4l46.871,15.62l22.5,30a8,8 0 0 0 6.4,3.2l88,0a8,8 0 0 0 0,-16z"/>
  <path fill="#00ffff" id="svg_6" d="m177.305,309.448a101.339,101.339 0 0 1 7.883,-26.312c0.313,-0.684 0.649,-1.352 0.976,-2.025c-15.32,10.862 -36.636,30.456 -54.575,63.472c-21.114,38.861 -33.085,87.67 -35.581,145.069a8,8 0 0 0 7.644,8.34c0.119,0.006 0.237,0.008 0.354,0.008a8,8 0 0 0 7.986,-7.652c4.331,-99.595 37.251,-153.115 65.313,-180.9z"/>
  <path fill="#00ffff" id="svg_7" d="m361.058,18.07a8,8 0 0 0 -8.988,6.872l-15.542,116.564l-34.267,24.476a67.686,67.686 0 0 1 6.6,14.945l39.789,-28.417a8,8 0 0 0 3.28,-5.452l16,-120a8,8 0 0 0 -6.872,-8.988z"/>
  <path fill="#00ffff" id="svg_8" d="m275.036,140.812a54.048,54.048 0 0 1 13.85,8.432c4.676,-11.044 8.083,-28.195 -1.731,-47.822a8,8 0 0 0 -14.31,7.156c6.317,12.634 5.279,23.77 2.191,32.234z"/>
  <path fill="#00ffff" id="svg_9" d="m236.964,140.812c-3.088,-8.464 -4.126,-19.6 2.191,-32.234a8,8 0 1 0 -14.31,-7.156c-9.814,19.627 -6.407,36.778 -1.731,47.822a54.048,54.048 0 0 1 13.85,-8.432z"/>
  <path fill="#00ffff" id="svg_10" d="m209.739,163.982l-34.267,-24.476l-15.542,-116.564a8,8 0 0 0 -15.86,2.116l16,120a8,8 0 0 0 3.28,5.452l39.784,28.417a67.686,67.686 0 0 1 6.605,-14.945z"/>
  <path fill="#00ffff" id="svg_11" d="m200,200c0,-0.145 0.009,-0.288 0.01,-0.433l-90.336,-30.109l-46.519,-93.036a8,8 0 1 0 -14.31,7.156l48,96a8,8 0 0 0 4.626,4.012l100.578,33.523a72.41,72.41 0 0 1 -2.049,-17.113z"/>
  <path fill="#00ffff" id="svg_12" d="m204.37,224.78l-46.9,15.63a8,8 0 0 0 -3.871,2.79l-21.599,28.8l-84,0a8,8 0 0 0 0,16l88,0a8,8 0 0 0 6.4,-3.2l22.5,-30l46.867,-15.62a66.668,66.668 0 0 1 -7.397,-14.4z"/>
  <ellipse id="svg_13" ry="0" rx="0" cy="203.28977" cx="240.00001" stroke-width="5" stroke="#000000" fill="#FF0000"/>
  <ellipse id="svg_14" ry="0" rx="0" cy="193.28977" cx="264.00001" stroke-width="5" stroke="#000000" fill="#FF0000"/>
 </g>
</svg>